<svg id="Layer_1" data-name="Layer 1" xmlns="http://www.w3.org/2000/svg" viewBox="0 0 176.1 47.53">
    <defs>
        <style>.cls-1{fill:#fff;}.cls-2{fill:#50b853;}</style>
    </defs>
    <title>logo</title>
    <path class="cls-1" d="M81.32,51.53v-24l-8.64,19H69.8L61,27.55v24H57.65V20H61L71.3,42.35,81.32,20h3.37V51.53Z"
          transform="translate(-13.75 -13.8)"/>
    <path class="cls-1"
          d="M105,49.32a9.12,9.12,0,0,1-12.5,0c-2.22-2.27-2.66-5.32-2.66-8.7s.44-6.42,2.66-8.69a9.12,9.12,0,0,1,12.5,0c2.22,2.27,2.66,5.32,2.66,8.69S107.26,47.05,105,49.32Zm-2.26-15.43a5.6,5.6,0,0,0-4-1.6,5.5,5.5,0,0,0-4,1.6c-1.59,1.59-1.77,4.3-1.77,6.73s.18,5.15,1.77,6.74a5.5,5.5,0,0,0,4,1.6,5.6,5.6,0,0,0,4-1.6c1.6-1.59,1.73-4.3,1.73-6.74S104.38,35.48,102.78,33.89Z"
          transform="translate(-13.75 -13.8)"/>
    <path class="cls-1"
          d="M112,61.33h-2.31V58.54h1.73c2.22,0,2.92-1.07,2.92-3.2V29.85h3.2V55.48C117.5,58.8,115.77,61.33,112,61.33Zm2.17-37.82V19.92h3.59v3.59Z"
          transform="translate(-13.75 -13.8)"/>
    <path class="cls-1" d="M124.32,23.51V19.92h3.6v3.59Zm.18,28V29.72h3.19V51.53Z" transform="translate(-13.75 -13.8)"/>
    <path class="cls-1" d="M141.17,51.53c-3.81,0-5.54-2.48-5.54-5.81V20h3.19V45.59c0,2.13.71,3.19,2.93,3.19h1.73v2.75Z"
          transform="translate(-13.75 -13.8)"/>
    <path class="cls-1" d="M148.57,23.51V19.92h3.6v3.59Zm.18,28V29.72h3.19V51.53Z" transform="translate(-13.75 -13.8)"/>
    <path class="cls-1"
          d="M165.91,51.53c-3.73,0-5.59-2.61-5.59-5.85V32.29h-2.75V29.85h2.75V23h3.19v6.83h4.66v2.44h-4.66v13.3c0,2,.93,3.19,3,3.19h1.69v2.75Z"
          transform="translate(-13.75 -13.8)"/>
    <path class="cls-1"
          d="M179.92,56.81a6.42,6.42,0,0,1-1.56,2.57,6,6,0,0,1-4.25,1.51h-1.38V58.05h1c2.22,0,2.88-.71,3.59-2.71l1.55-4.25L171,29.72h3.46l6,17.51,5.94-17.51h3.46Z"
          transform="translate(-13.75 -13.8)"/>
    <polygon class="cls-2"
             points="6.02 21.79 12.92 16.01 9.63 13.34 0 21.7 0.07 21.77 0 21.85 0.71 22.5 9.2 29.66 12.41 26.97 6.02 21.79"/>
    <polygon class="cls-2" points="19.27 10.68 28.36 3.06 24.98 0.01 15.93 7.87 19.27 10.68"/>
    <polygon class="cls-2" points="15.62 35.07 24.97 42.95 28.34 39.91 18.89 32.23 15.62 35.07"/>
    <polygon class="cls-2"
             points="27.75 20.45 3.5 0 0.12 3.04 22.45 21.16 0.11 39.89 3.49 42.94 28.46 21.25 28.39 21.18 28.47 21.1 27.75 20.45"/>
</svg>